<svg xmlns="http://www.w3.org/2000/svg" xmlns:xlink="http://www.w3.org/1999/xlink" viewBox="0 0 720 504" xmlns:v="https://vecta.io/nano"><style><![CDATA[.N{fill:#fff}.O{fill:#009b3a}.P{fill-rule:evenodd}]]></style><path d="M0 0h720v504H0z" class="O"/><path d="M61.2,252L360,442.8L658.8,252L360,61.2L61.2,252z" fill="#fedf00"/><circle cx="360" cy="252" r="126" fill="#002776"/><defs><circle id="A" cx="360" cy="252" r="126"/></defs><clipPath id="B"><use xlink:href="#A"/></clipPath><path d="M-18,504c0-169,137-306,306-306s306,137,306,306h-18c0-159.1-128.9-288-288-288S0,344.9,0,504H-18z" clip-path="url(#B)" class="N"/><g transform="translate(-420 1470)"><path d="M514.566-1327.404c2.929-.763 4.561-3.885 3.761-7.111s-3.772-5.28-6.7-4.517-4.561 3.885-3.761 7.111 3.859 5.168 6.7 4.517m-.467-2.159c1.663-.406 2.622-2.438 2.18-4.398s-2.325-3.342-3.988-2.936-2.622 2.438-2.18 4.398c.454 2.06 2.225 3.354 3.988 2.936" class="O P"/><g transform="rotate(356)" class="O"><path d="M682.3-1255.9l2.2-.2-.3-4.4 4.8-.3c2.1-.1 3.6-1.9 3.5-4s-1.9-3.6-4-3.5l-6.8.5.6 11.9zm1.8-6.8l4.6-.3c.8-.1 1.5-.8 1.4-1.6s-.8-1.5-1.6-1.4l-4.6.3.2 3z" class="P"/><path d="M692.5-1256.6c-.1-1.7-.4-5.5-2.9-5.3l-3.2.2c3.8-.3 4 3.5 4.1 5.2"/></g><g class="O"><path d="M675.458-1268.882l5.697-.199c2.8-.049 5.057-2.489 5.008-5.288l-.03-1.7c-.049-2.8-2.489-5.057-5.288-5.008l-5.697.199.309 11.996zm2.161-2.238l3.298-.158c1.8-.031 3.173-1.556 3.142-3.355l-.017-1c-.031-1.8-1.556-3.173-3.355-3.142l-3.298.158.231 7.497z" class="P"/><path d="M756.234-1231.358l10.779.777.177-2.195-8.684-.603.208-3.095 6.889.441.173-2.095-6.889-.441.184-2.395 8.185.586.177-2.195-10.28-.759-.918 11.975zm78.498 43.188l1.975.374 1.412-8.108.961 8.516 1.875.365 3.785-7.699-1.412 8.108 1.975.374 2.042-11.867-2.962-.56-3.785 7.699-.961-8.516-2.962-.56-1.942 11.876zm119.491 80.163l8.517 2.986.634-1.92-6.499-2.334.95-2.576 5.35 1.934.634-1.92-5.35-1.934.617-1.822 6.318 2.202.634-1.92-8.32-2.952-3.487 10.258z"/><path d="M1063.645-1015.118l1.98 1.132 2.142-3.888 4.153 2.314c1.811.985 4.145.349 5.13-1.462s.349-4.145-1.462-5.13l-5.964-3.298-5.977 10.332zm5.253-4.736l4.056 2.288c.724.394 1.721.135 2.115-.589s.135-1.721-.589-2.115l-4.056-2.288-1.526 2.704z" class="P"/></g><g transform="rotate(17.5)" class="O"><path d="M790.4-1245.2l2.1.7 1.3-4.3 4.6 1.4c2 .6 4.1-.5 4.7-2.5s-.5-4.1-2.5-4.7l-6.5-2.1-3.7 11.5zm4.1-5.7l4.4 1.4c.8.3 1.7-.2 1.9-1 .3-.8-.2-1.7-1-1.9l-4.4-1.4-.9 2.9z" class="P"/><path d="M800.1-1242.1c.5-1.6 1.6-5.2-.8-6l-3.1-1c3.6 1.1 2.5 4.7 1.9 6.4"/></g><path d="M1192.378-876.529c2.272 1.917 5.83 1.539 8.04-.944s2.089-6.158-.183-8.076-5.83-1.539-8.04.944c-2.116 2.518-2.089 6.158.183 8.076m1.485-1.687c1.289 1.122 3.547.792 4.868-.742 1.356-1.628 1.401-3.747.112-4.869s-3.547-.792-4.868.742c-1.415 1.5-1.401 3.747-.112 4.869" class="O P"/><g transform="rotate(23.5)"><defs><path id="C" d="M819.1-1235l4.8-11 9.9 4.3-4.8 11-9.9-4.3zm8.1-5.3l-.8 1.9 5 2.2.8-1.9-5-2.2z"/></defs><clipPath id="D"><use xlink:href="#C"/></clipPath><g clip-path="url(#D)" class="O P"><path d="M824-1232.9c2.7 1.2 6-.3 7.3-3.3s.2-6.5-2.6-7.7c-2.7-1.2-6 .3-7.3 3.3-1.2 3.1-.1 6.5 2.6 7.7m.9-2c1.6.7 3.6-.3 4.4-2.2s.2-4-1.4-4.7-3.6.3-4.4 2.2-.2 4 1.4 4.7"/></g><g class="O"><path d="M826.446-1236.425l.678-1.559 4.127 1.794-.678 1.559z"/><path d="M827.291-1231.384l2.392-5.503 1.559.678-2.392 5.503z"/></g></g><g transform="rotate(26.5)" class="O"><path d="M833-1228.8l2 1 2-4 4.3 2.1c1.9.9 4.1.2 5.1-1.7.9-1.9.2-4.1-1.7-5.1l-6.1-3.1-5.6 10.8zm5-5l4.1 2.1c.8.4 1.7.1 2.1-.7s.1-1.7-.7-2.1l-4.1-2.1-1.4 2.8z" class="P"/><path d="M842.1-1224.3c.8-1.5 2.4-4.9.1-6.1l-2.9-1.5c3.4 1.7 1.7 5.1.9 6.6"/></g><g class="O"><path d="M1338.535-646.602l5.571 9.242 1.893-1.112-4.497-7.485 2.635-1.611 3.548 5.914 1.757-1.074-3.548-5.914 2.079-1.237 4.248 7.114 1.893-1.112-5.322-8.871-10.256 6.146zm43.65 85.234c-1.043.521-1.128 1.771-.401 3.42.697 1.511 1.541 2.049 2.254 1.673 2.225-1.073-2.573-7.686 1.385-9.433 3.352-1.54 5.015 2.365 5.681 3.738s1.256 4.357-1.383 5.521l-1.103-2.363c1.181-.552 1.044-1.825.546-3.091-.552-1.181-1.149-1.918-2.277-1.451-1.841.843 2.734 7.433-1.14 9.234-2.831 1.279-4.686-1.206-5.674-3.377-.843-1.841-1.524-5.239 1.169-6.488l.942 2.616zm32.993 87.6c-1.151.408-1.301 1.652-.742 3.279s1.373 2.208 2.047 1.952c2.301-.815-1.749-7.88 2.319-9.278 3.533-1.165 4.71 2.868 5.246 4.356s.805 4.382-1.973 5.349l-.839-2.441c1.151-.408 1.219-1.71.789-3s-.989-2.057-2.14-1.649c-1.906.606 1.946 7.776-2.063 9.092-2.917.99-4.523-1.752-5.315-3.914-.664-1.825-1.05-5.416 1.809-6.325l.862 2.58z"/><path d="M1438.991-380.659c.617 2.919 3.808 4.69 7.07 3.963s5.268-3.732 4.651-6.65-3.808-4.69-7.07-3.963-5.347 3.669-4.651 6.65m2.138-.599c.411 1.732 2.303 2.727 4.379 2.205 2.013-.443 3.305-2.227 2.972-3.897-.411-1.732-2.303-2.727-4.379-2.205-2.013.443-3.305 2.227-2.972 3.897" class="P"/></g></g><g transform="scale(31.5)" class="N"><path d="M257.1 224l-1.7 5.1 2.6.8m-515.1-5.9l-1.7 5.1 2.6.8"/><path d="M262.3 227.7h-5.4v2.7m-519.2-2.7l4.4 3.2 1.6-2.2" transform="rotate(72)"/><path d="M252 227.7l4.4 3.2 1.6-2.2m-510-1h-5.4v2.7" transform="rotate(288)"/><path d="M260.3 233.7l-1.7-5.1-2.6.8m-516.3 4.3l4.4-3.2-1.6-2.2" transform="rotate(144)"/><path d="M254 233.7l4.4-3.2-1.6-2.2m-510.8 5.4l-1.7-5.1-2.6.8" transform="rotate(216)"/><path d="M268.3 276.9l-1.7 5.1 2.6.8m-537.5-5.9l-1.7 5.1 2.6.8"/><path d="M273.4 280.7H268v2.7m-541.4-2.7l4.4 3.2 1.6-2.2" transform="rotate(72)"/><path d="M263.1 280.7l4.4 3.2 1.6-2.2m-532.2-1h-5.4v2.7" transform="rotate(288)"/><path d="M271.5 286.7l-1.7-5.1-2.6.8m-538.7 4.3l4.4-3.2-1.6-2.2" transform="rotate(144)"/><path d="M265.1 286.7l4.4-3.2-1.6-2.2m-533 5.4l-1.7-5.1-2.6.8" transform="rotate(216)"/></g><g transform="scale(26.25)" class="N"><path d="M252.9 289.2l-1.4 4.3 2.1.7m-506.5-5l-1.4 4.3 2.1.7"/><path d="M257.1 292.3h-4.5v2.3m-509.7-2.3l3.6 2.6 1.3-1.8" transform="rotate(72)"/><path d="M248.6 292.3l3.6 2.6 1.3-1.8m-502.1-.8h-4.5v2.3" transform="rotate(288)"/><path d="M255.5 297.3l-1.4-4.3-2.1.7m-507.5 3.6l3.6-2.6-1.3-1.8" transform="rotate(144)"/><path d="M250.2 297.3l3.6-2.6-1.3-1.8m-502.7 4.4l-1.4-4.3-2.1.7" transform="rotate(216)"/></g><g transform="scale(15)" class="N"><path d="M280.6 272.1l-.8 2.4 1.2.4m-561.6-2.8l-.8 2.4 1.2.4"/><path d="M283.1 273.8h-2.6v1.3m-563.6-1.3l2.1 1.5.8-1" transform="rotate(72)"/><path d="M278.2 273.8l2.1 1.5.8-1m-559.3-.5h-2.6v1.3" transform="rotate(288)"/><path d="M282.1 276.7l-.8-2.4-1.2.4m-562.2 2l2.1-1.5-.8-1" transform="rotate(144)"/><path d="M279.1 276.7l2.1-1.5-.8-1m-559.5 2.5l-.8-2.4-1.2.4" transform="rotate(216)"/></g><g transform="scale(26.25)" class="N"><path d="M294.5 290.4l-1.4 4.3 2.1.7m-589.7-5l-1.4 4.3 2.1.7"/><path d="M298.8 293.5h-4.5v2.3m-593.1-2.3l3.6 2.6 1.3-1.8" transform="rotate(72)"/><path d="M290.2 293.5l3.6 2.6 1.3-1.8m-585.3-.8h-4.5v2.3" transform="rotate(288)"/><path d="M297.2 298.5l-1.4-4.3-2.1.7m-590.9 3.6l3.6-2.6-1.3-1.8" transform="rotate(144)"/><path d="M291.9 298.5l3.6-2.6-1.3-1.8m-586.1 4.4l-1.4-4.3-2.1.7" transform="rotate(216)"/></g><g transform="scale(21)" class="N"><path d="M290.7 303.8l-1.1 3.4 1.7.6m-582-4l-1.1 3.4 1.7.6"/><path d="M294.2 306.3h-3.6v1.8m-584.8-1.8l2.9 2.1 1.1-1.5" transform="rotate(72)"/><path d="M287.3 306.3l2.9 2.1 1.1-1.5m-578.6-.6h-3.6v1.8" transform="rotate(288)"/><path d="M292.9 310.3l-1.1-3.4-1.7.6m-583 2.8l2.9-2.1-1.1-1.5" transform="rotate(144)"/><path d="M288.6 310.3l2.9-2.1-1.1-1.5m-579 3.6l-1.1-3.4-1.7.6" transform="rotate(216)"/></g><g transform="scale(31.5)" class="N"><path d="M399.1 176.5l-1.7 5.1 2.6.8m-799.1-5.9l-1.7 5.1 2.6.8"/><path d="M404.2 180.2h-5.4v2.7m-803-2.7l4.4 3.2 1.6-2.2" transform="rotate(72)"/><path d="M394 180.2l4.4 3.2 1.6-2.2m-794-1h-5.4v2.7" transform="rotate(288)"/><path d="M402.3 186.3l-1.7-5.1-2.6.8m-800.3 4.3l4.4-3.2-1.6-2.2" transform="rotate(144)"/><path d="M395.9 186.3l4.4-3.2-1.6-2.2m-794.6 5.4l-1.7-5.1-2.6.8" transform="rotate(216)"/><path d="M448.3 290.8l-1.7 5.1 2.6.8m-897.5-5.9l-1.7 5.1 2.6.8"/><path d="M453.4 294.6H448v2.7m-901.4-2.7l4.4 3.2 1.6-2.2" transform="rotate(72)"/><path d="M443.2 294.6l4.4 3.2 1.6-2.2m-892.4-1h-5.4v2.7" transform="rotate(288)"/><path d="M451.5 300.6l-1.7-5.1-2.6.8m-898.7 4.3l4.4-3.2-1.6-2.2" transform="rotate(144)"/><path d="M445.1 300.6l4.4-3.2-1.6-2.2m-893 5.4l-1.7-5.1-2.6.8" transform="rotate(216)"/></g><g transform="scale(21)" class="N"><path d="M465.8 293.8l-1.1 3.4 1.7.6m-932.2-4l-1.1 3.4 1.7.6"/><path d="M469.2 296.3h-3.6v1.8m-934.8-1.8l2.9 2.1 1.1-1.5" transform="rotate(72)"/><path d="M462.3 296.3l2.9 2.1 1.1-1.5m-928.6-.6h-3.6v1.8" transform="rotate(288)"/><path d="M467.9 300.3l-1.1-3.4-1.7.6m-933 2.8l2.9-2.1-1.1-1.5" transform="rotate(144)"/><path d="M463.7 300.3l2.9-2.1-1.1-1.5m-929.2 3.6l-1.1-3.4-1.7.6" transform="rotate(216)"/></g><g transform="scale(26.25)" class="N"><path d="M453.4 302.9l-1.4 4.3 2.1.7m-907.5-5l-1.4 4.3 2.1.7"/><path d="M457.7 306h-4.5v2.3m-910.9-2.3l3.6 2.6 1.3-1.8" transform="rotate(72)"/><path d="M449.1 306l3.6 2.6 1.3-1.8m-903.1-.8h-4.5v2.3" transform="rotate(288)"/><path d="M456.1 311l-1.4-4.3-2.1.7m-908.7 3.6l3.6-2.6-1.3-1.8" transform="rotate(144)"/><path d="M450.8 311l3.6-2.6-1.3-1.8m-903.9 4.4l-1.4-4.3-2.1.7" transform="rotate(216)"/><path d="M423.1 329.3l-1.4 4.3 2.1.7m-846.9-5l-1.4 4.3 2.1.7"/><path d="M427.4 332.4h-4.5v2.3m-850.3-2.3l3.6 2.6 1.3-1.8" transform="rotate(72)"/><path d="M418.8 332.4l3.6 2.6 1.3-1.8m-842.5-.8h-4.5v2.3" transform="rotate(288)"/><path d="M425.7 337.4l-1.4-4.3-2.1.7m-847.9 3.6l3.6-2.6-1.3-1.8" transform="rotate(144)"/><path d="M420.4 337.4l3.6-2.6-1.3-1.8m-843.1 4.4l-1.4-4.3-2.1.7" transform="rotate(216)"/></g><g transform="scale(21)" class="N"><path d="M422.9 342.9l-1.1 3.4 1.7.6m-846.4-4l-1.1 3.4 1.7.6"/><path d="M426.3 345.3h-3.6v1.8m-849-1.8l2.9 2.1 1.1-1.5" transform="rotate(72)"/><path d="M419.5 345.3l2.9 2.1 1.1-1.5m-843-.6h-3.6v1.8" transform="rotate(288)"/><path d="M425 349.4l-1.1-3.4-1.7.6m-847.2 2.8l2.9-2.1-1.1-1.5" transform="rotate(144)"/><path d="M420.8 349.4l2.9-2.1-1.1-1.5m-843.4 3.6l-1.1-3.4-1.7.6" transform="rotate(216)"/><path d="M435.6 320.2l-1.1 3.4 1.7.6m-871.8-4l-1.1 3.4 1.7.6"/><path d="M439 322.7h-3.6v1.8m-874.4-1.8l2.9 2.1 1.1-1.5" transform="rotate(72)"/><path d="M432.2 322.7l2.9 2.1 1.1-1.5m-868.4-.6h-3.6v1.8" transform="rotate(288)"/><path d="M437.7 326.7l-1.1-3.4-1.7.6m-872.6 2.8l2.9-2.1-1.1-1.5" transform="rotate(144)"/><path d="M433.5 326.7l2.9-2.1-1.1-1.5m-868.8 3.6l-1.1-3.4-1.7.6" transform="rotate(216)"/></g><g transform="scale(26.25)" class="N"><path d="M445.7 313l-1.4 4.3 2.1.7m-892.1-5l-1.4 4.3 2.1.7"/><path d="M450 316.1h-4.5v2.3m-895.5-2.3l3.6 2.6 1.3-1.8" transform="rotate(72)"/><path d="M441.4 316.1l3.6 2.6 1.3-1.8m-887.7-.8h-4.5v2.3" transform="rotate(288)"/><path d="M448.4 321.1l-1.4-4.3-2.1.7m-893.3 3.6l3.6-2.6-1.3-1.8" transform="rotate(144)"/><path d="M443.1 321.1l3.6-2.6-1.3-1.8m-888.5 4.4l-1.4-4.3-2.1.7" transform="rotate(216)"/></g><g transform="scale(21)" class="N"><path d="M422.6 317.8l-1.1 3.4 1.7.6m-845.8-4l-1.1 3.4 1.7.6"/><path d="M426 320.3h-3.6v1.8m-848.4-1.8l2.9 2.1 1.1-1.4" transform="rotate(72)"/><path d="M419.1 320.3l2.9 2.1 1.1-1.5m-842.2-.6h-3.6v1.8" transform="rotate(288)"/><path d="M424.7 324.3l-1.1-3.4-1.7.6m-846.6 2.8l2.9-2.1-1.1-1.5" transform="rotate(144)"/><path d="M420.5 324.3l2.9-2.1-1.1-1.5m-842.8 3.6l-1.1-3.4-1.7.6" transform="rotate(216)"/></g><g transform="scale(26.25)" class="N"><path d="M312 252.6l-1.4 4.3 2.1.7m-624.7-5l-1.4 4.3 2.1.7"/><path d="M316.3 255.8h-4.5v2.3m-628.1-2.3l3.6 2.6 1.3-1.8" transform="rotate(72)"/><path d="M307.7 255.8l3.6 2.6 1.3-1.8m-620.3-.8h-4.5v2.3" transform="rotate(288)"/><path d="M314.6 260.8l-1.4-4.3-2.1.7m-625.7 3.6l3.6-2.6-1.3-1.8" transform="rotate(144)"/><path d="M309.4 260.8l3.6-2.6-1.3-1.8m-621.1 4.4l-1.4-4.3-2.1.7" transform="rotate(216)"/></g><g transform="scale(21)" class="N"><path d="M394.3 242.1l-1.1 3.4 1.7.6m-789.2-4l-1.1 3.4 1.7.6"/><path d="M397.7 244.5h-3.6v1.8m-791.8-1.8l2.9 2.1 1.1-1.5" transform="rotate(72)"/><path d="M390.9 244.5l2.9 2.1 1.1-1.5m-785.8-.6h-3.6v1.8" transform="rotate(288)"/><path d="M396.4 248.6l-1.1-3.4-1.7.6m-790 2.8l2.9-2.1-1.1-1.5" transform="rotate(144)"/><path d="M392.2 248.6l2.9-2.1-1.1-1.5m-786.2 3.6l-1.1-3.4-1.7.6" transform="rotate(216)"/></g><g transform="scale(31.5)" class="N"><path d="M360 303.2l-1.7 5.1 2.6.8m-720.9-5.9l-1.7 5.1 2.6.8"/><path d="M365.1 306.9h-5.4v2.7m-724.8-2.7l4.4 3.2 1.6-2.2" transform="rotate(72)"/><path d="M354.9 306.9l4.4 3.2 1.6-2.2m-715.8-1h-5.4v2.7" transform="rotate(288)"/><path d="M363.2 312.9l-1.7-5.1-2.6.8m-722.1 4.3l4.4-3.2-1.6-2.2" transform="rotate(144)"/><path d="M356.8 312.9l4.4-3.2-1.6-2.2m-716.4 5.4l-1.7-5.1-2.6.8" transform="rotate(216)"/></g><g transform="scale(26.25)" class="N"><path d="M374.6 279l-1.4 4.3 2.1.7m-749.9-5l-1.4 4.3 2.1.7"/><path d="M378.9 282.2h-4.5v2.3m-753.3-2.3l3.6 2.6 1.3-1.8" transform="rotate(72)"/><path d="M370.3 282.2l3.6 2.6 1.3-1.8m-745.5-.8h-4.5v2.3" transform="rotate(288)"/><path d="M377.2 287.2l-1.4-4.3-2.1.7m-750.9 3.6l3.6-2.6-1.3-1.8" transform="rotate(144)"/><path d="M371.9 287.2l3.6-2.6-1.3-1.8m-746.1 4.4l-1.4-4.3-2.1.7" transform="rotate(216)"/><path d="M360 267.7l-1.4 4.3 2.1.7m-720.7-5l-1.4 4.3 2.1.7"/><path d="M364.3 270.8h-4.5v2.3m-724.1-2.3l3.6 2.6 1.3-1.8" transform="rotate(72)"/><path d="M355.7 270.8l3.6 2.6 1.3-1.8m-716.3-.8h-4.5v2.3" transform="rotate(288)"/><path d="M362.6 275.9l-1.4-4.3-2.1.7m-721.7 3.6l3.6-2.6-1.3-1.8" transform="rotate(144)"/><path d="M357.4 275.9l3.6-2.6-1.3-1.8m-717.1 4.4l-1.4-4.3-2.1.7" transform="rotate(216)"/></g><g transform="scale(21)" class="N"><path d="M347.3 279.9l-1.1 3.4 1.7.6m-695.2-4l-1.1 3.4 1.7.6"/><path d="M350.7 282.4h-3.6v1.8m-697.8-1.8l2.9 2.1 1.1-1.5" transform="rotate(72)"/><path d="M343.9 282.4l2.9 2.1 1.1-1.5m-691.8-.6h-3.6v1.8" transform="rotate(288)"/><path d="M349.4 286.5l-1.1-3.4-1.7.6m-696 2.8l2.9-2.1-1.1-1.5" transform="rotate(144)"/><path d="M345.2 286.5l2.9-2.1-1.1-1.5m-692.2 3.6l-1.1-3.4-1.7.6" transform="rotate(216)"/></g><g transform="scale(15)" class="N"><path d="M353.7 289.7l-.8 2.4 1.2.4m-707.8-2.8l-.8 2.4 1.2.4"/><path d="M356.1 291.5h-2.6v1.3m-709.6-1.3l2.1 1.5.8-1" transform="rotate(72)"/><path d="M351.2 291.5l2.1 1.5.8-1m-705.3-.5h-2.6v1.3" transform="rotate(288)"/><path d="M355.2 294.4l-.8-2.4-1.2.4m-708.4 2l2.1-1.5-.8-1" transform="rotate(144)"/><path d="M352.1 294.4l2.1-1.5-.8-1m-705.5 2.5l-.8-2.4-1.2.4" transform="rotate(216)"/></g><g transform="scale(26.25)" class="N"><path d="M397.7 332.4l-1.4 4.3 2.1.7m-796.1-5l-1.4 4.3 2.1.7"/><path d="M402 335.5h-4.5v2.3m-799.5-2.3l3.6 2.6 1.3-1.8" transform="rotate(72)"/><path d="M393.4 335.5l3.6 2.6 1.3-1.8m-791.7-.8h-4.5v2.3" transform="rotate(288)"/><path d="M400.4 340.5l-1.4-4.3-2.1.7m-797.3 3.6l3.6-2.6-1.3-1.8" transform="rotate(144)"/><path d="M395.1 340.5l3.6-2.6-1.3-1.8m-792.5 4.4l-1.4-4.3-2.1.7" transform="rotate(216)"/></g><g transform="scale(21)" class="N"><path d="M408.5 322.1l-1.1 3.4 1.7.6m-817.6-4l-1.1 3.4 1.7.6"/><path d="M411.9 324.6h-3.6v1.8m-820.2-1.8l2.9 2.1 1.1-1.5" transform="rotate(72)"/><path d="M405.1 324.6l2.9 2.1 1.1-1.5m-814.2-.6h-3.6v1.8" transform="rotate(288)"/><path d="M410.6 328.6l-1.1-3.4-1.7.6m-818.4 2.8l2.9-2.1-1.1-1.5" transform="rotate(144)"/><path d="M406.4 328.6l2.9-2.1-1.1-1.5m-814.6 3.6l-1.1-3.4-1.7.6" transform="rotate(216)"/><path d="M387.8 319l-1.1 3.4 1.7.6m-776.2-4l-1.1 3.4 1.7.6"/><path d="M391.2 321.5h-3.6v1.8m-778.8-1.8l2.9 2.1 1.1-1.5" transform="rotate(72)"/><path d="M384.3 321.5l2.9 2.1 1.1-1.5m-772.6-.6h-3.6v1.8" transform="rotate(288)"/><path d="M389.9 325.5l-1.1-3.4-1.7.6m-777 2.8l2.9-2.1-1.1-1.5" transform="rotate(144)"/><path d="M385.7 325.5l2.9-2.1-1.1-1.5m-773.2 3.6l-1.1-3.4-1.7.6" transform="rotate(216)"/></g><g transform="scale(31.5)" class="N"><path d="M309.4 313.5l-1.7 5.1 2.6.8m-619.7-5.9l-1.7 5.1 2.6.8"/><path d="M314.6 317.2h-5.4v2.7m-623.8-2.7l4.4 3.2 1.6-2.2" transform="rotate(72)"/><path d="M304.3 317.2l4.4 3.2 1.6-2.2m-614.6-1h-5.4v2.7" transform="rotate(288)"/><path d="M312.6 323.2l-1.7-5.1-2.6.8m-620.9 4.3l4.4-3.2-1.6-2.2" transform="rotate(144)"/><path d="M306.3 323.2l4.4-3.2-1.6-2.2m-615.4 5.4l-1.7-5.1-2.6.8" transform="rotate(216)"/></g></svg>