<?xml version="1.0" encoding="utf-8"?>
<!-- Generator: Adobe Illustrator 24.1.3, SVG Export Plug-In . SVG Version: 6.00 Build 0)  -->
<svg version="1.1" id="Calque_1" xmlns="http://www.w3.org/2000/svg" xmlns:xlink="http://www.w3.org/1999/xlink" x="0px" y="0px"
	 viewBox="0 0 19.3 19.3" style="enable-background:new 0 0 19.3 19.3;" xml:space="preserve">
<style type="text/css">
	.st0{display:none;fill-rule:evenodd;clip-rule:evenodd;fill:#6EC8E5;}
	.st1{fill:#F5AF1A;}
	.st2{display:none;}
	.st3{display:inline;fill-rule:evenodd;clip-rule:evenodd;fill:#BED855;}
</style>
<path class="st0" d="M7,6.1c0.4,0,0.7,0,1,0.1s0.6,0.2,0.8,0.3C9,6.7,9.2,6.9,9.3,7.1S9.5,7.7,9.5,8c0,0.4-0.1,0.7-0.3,1
	S8.8,9.5,8.4,9.7c0.5,0.1,0.8,0.4,1.1,0.7s0.4,0.8,0.4,1.3c0,0.4-0.1,0.7-0.2,1S9.3,13.2,9,13.4s-0.6,0.3-0.9,0.4s-0.7,0.1-1,0.1
	H3.3V6.1H7L7,6.1z M11.6,6.7h3.2v0.8h-3.2V6.7z M12.3,12.6c0.2,0.2,0.6,0.3,1,0.3c0.3,0,0.6-0.1,0.8-0.2s0.4-0.3,0.4-0.5h1.4
	c-0.2,0.7-0.6,1.2-1,1.5s-1,0.4-1.6,0.4c-0.4,0-0.9-0.1-1.2-0.2s-0.7-0.4-0.9-0.6c-0.3-0.3-0.4-0.6-0.6-0.9s-0.2-0.8-0.2-1.2
	s0.1-0.8,0.2-1.2s0.3-0.7,0.6-0.9c0.3-0.3,0.6-0.5,0.9-0.6c0.4-0.2,0.8-0.2,1.2-0.2c0.5,0,0.9,0.1,1.3,0.3s0.6,0.4,0.9,0.8
	c0.2,0.3,0.4,0.7,0.5,1.1c0.1,0.4,0.1,0.8,0.1,1.3H12C11.9,11.9,12.1,12.3,12.3,12.6L12.3,12.6z M14.1,9.6c-0.2-0.2-0.5-0.3-0.9-0.3
	c-0.3,0-0.5,0-0.6,0.1c-0.2,0.1-0.3,0.2-0.4,0.3C12.1,9.8,12,10,12,10.1s-0.1,0.3-0.1,0.4h2.5C14.4,10.1,14.3,9.8,14.1,9.6L14.1,9.6
	z M6.8,9.3c0.3,0,0.6-0.1,0.8-0.2C7.8,9,7.9,8.7,7.9,8.4c0-0.2,0-0.3-0.1-0.4C7.6,7.8,7.6,7.7,7.4,7.6C7.3,7.5,7.2,7.5,7.1,7.5
	S6.8,7.4,6.7,7.4H5v1.8L6.8,9.3L6.8,9.3z M6.8,12.6c0.2,0,0.3,0,0.5-0.1c0.2,0,0.3-0.1,0.4-0.2S7.9,12.1,8,12
	c0.1-0.1,0.1-0.3,0.1-0.5c0-0.4-0.1-0.7-0.3-0.9s-0.5-0.3-0.9-0.3H5v2.2L6.8,12.6L6.8,12.6z"/>
<g>
	<path class="st1" d="M6.9,14.6H4.5V7.5h2.3L6.9,14.6L6.9,14.6z M5.7,6.6L5.7,6.6C4.9,6.6,4.4,6,4.4,5.3s0.5-1.2,1.3-1.2
		S7,4.6,7,5.3S6.5,6.6,5.7,6.6z M15.4,14.6H13v-3.8c0-0.9-0.3-1.6-1.2-1.6c-0.6,0-1,0.4-1.2,0.9c-0.1,0.1-0.1,0.4-0.1,0.6v3.9H8.2
		c0,0,0-6.4,0-7.1h2.4v1c0.3-0.5,0.9-1.2,2.1-1.2c1.6,0,2.7,1,2.7,3.2C15.4,10.5,15.4,14.6,15.4,14.6z"/>
</g>
<g class="st2">
	<path id="Path_13_1_" class="st3" d="M9.8,3.9c1,0,2,0,3,0.1c0.5,0,0.9,0.1,1.4,0.2c0.6,0.3,1.1,0.8,1.4,1.4
		C15.7,6,15.8,6.5,15.8,7c0,0.7,0.1,1,0.1,3c0,1,0,2-0.1,3c0,0.5-0.1,0.9-0.3,1.4c-0.3,0.6-0.8,1.1-1.4,1.4
		c-0.4,0.2-0.9,0.3-1.4,0.3c-0.7,0-1,0.1-3,0.1c-1,0-2,0-3-0.1c-0.5,0-0.9-0.1-1.4-0.3c-0.6-0.3-1.1-0.8-1.4-1.4
		C3.7,14,3.6,13.5,3.6,13c0-0.7-0.1-1-0.1-3c0-1,0-2,0.1-3C3.8,6.5,3.8,6,4,5.6C4.1,5.3,4.3,5,4.6,4.8c0.2-0.3,0.5-0.5,0.8-0.6
		C5.8,4,6.3,3.9,6.8,3.9C7.8,3.9,8.8,3.8,9.8,3.9 M9.8,2.5c-1,0-2,0-3,0.1C6.1,2.6,5.5,2.7,4.9,3C4.4,3.1,4,3.4,3.6,3.8
		S2.9,4.6,2.8,5.1C2.5,5.7,2.4,6.3,2.4,6.9c-0.1,1-0.1,2-0.1,3s0,2,0.1,3c0,0.6,0.1,1.2,0.3,1.8c0.2,0.5,0.4,0.9,0.8,1.3
		c0.4,0.4,0.8,0.7,1.3,0.8C5.4,17,6,17.1,6.6,17.1c1,0.1,2,0.1,3,0.1s2,0,3-0.1c0.6,0,1.2-0.1,1.8-0.3c1-0.3,1.8-1.1,2.1-2.1
		c0.2-0.6,0.3-1.2,0.3-1.8c0-0.8,0.1-1.1,0.1-3c0-1,0-2-0.1-3c0-0.6-0.1-1.2-0.3-1.8c-0.2-0.5-0.4-0.9-0.8-1.3
		c-0.4-0.4-0.8-0.7-1.3-0.8c-0.6-0.2-1.2-0.3-1.8-0.3C11.8,2.5,10.8,2.5,9.8,2.5 M9.8,6.2C7.7,6.1,6,7.8,6,9.8v0.1
		c0,2.1,1.7,3.8,3.8,3.8s3.8-1.7,3.8-3.8S11.9,6.2,9.8,6.2L9.8,6.2 M9.8,12.4c-1.3,0-2.4-1-2.5-2.4V9.9c0-1.3,1.1-2.4,2.4-2.5h0.1
		c1.3,0,2.4,1,2.5,2.4v0.1c0,1.3-1,2.4-2.4,2.5C9.8,12.4,9.8,12.4,9.8,12.4 M13.7,5.1c-0.5,0-0.9,0.4-0.9,0.9s0.4,0.9,0.9,0.9
		s0.9-0.4,0.9-0.9C14.6,5.5,14.2,5.1,13.7,5.1"/>
</g>
</svg>
