<?xml version="1.0" encoding="utf-8"?>
<!-- Generator: Adobe Illustrator 24.1.3, SVG Export Plug-In . SVG Version: 6.00 Build 0)  -->
<svg version="1.1" xmlns="http://www.w3.org/2000/svg" xmlns:xlink="http://www.w3.org/1999/xlink" x="0px" y="0px"
	 viewBox="0 0 500 500" style="enable-background:new 0 0 500 500;" xml:space="preserve">
<style type="text/css">
	.st0{display:none;}
	.st1{display:inline;fill:#40B4E2;}
	.st2{display:inline;fill:#F7F7F7;}
	.st3{fill:#0856F4;stroke:#082EB7;stroke-width:4;stroke-miterlimit:10;}
	.st4{stroke:#000000;stroke-width:5;stroke-miterlimit:10;}
	.st5{fill:#C41414;}
	.st6{fill:#87EA07;stroke:#23CC77;stroke-miterlimit:10;}
</style>
<g id="Calque_1" class="st0">
	<path class="st1" d="M160,110l77,47L75,248C75,248,82.5,162,160,110z"/>
	<path class="st2" d="M329,196L170.1,99.7c0,0,78.6-35.8,162,6.1"/>
	<path class="st2" d="M169,316.9L328,413c0,0-78.5,35.9-162-5.9"/>
	<path class="st2" d="M153.9,223L166,408.4c0,0-74.3-43.9-87.8-136.3"/>
	<path class="st2" d="M342.9,295l1.3-185.8c0,0,71,49.2,77.7,142.2"/>
	<path class="st2" d="M263.6,360.7l155.6-101.5c0,0-1.8,86.3-75.7,143.3"/>
</g>
<g id="Calque_2">
	<polygon class="st3" points="33.9,130.9 261.9,334.9 390,283 	"/>
	<polygon class="st4" points="145,327 335,117 368,435 	"/>
	<path class="st5" d="M145,194c-2.5,2.5,135.5-107.5,135-105s29,77,29,77L145,194z"/>
	<circle class="st6" cx="125" cy="411" r="12"/>
	<circle class="st6" cx="161.5" cy="411.5" r="12.5"/>
	<circle class="st6" cx="204.5" cy="413.5" r="14.5"/>
</g>
</svg>
